<svg width="129" height="33" viewBox="0 0 129 33" fill="none" xmlns="http://www.w3.org/2000/svg">
<g clip-path="url(#clip0_0_20890)">
<path d="M6.65138 0.256348L0.303711 3.89773L6.65138 7.53911L0.303711 11.1236L6.65138 14.765L0.303711 18.3495L6.65138 21.9908L14.9033 17.3253L19.4044 21.9908V14.7934L25.7521 11.152L6.65138 0.256348ZM18.2503 18.9753L7.8055 8.16497L18.2503 14.0822V18.9753Z" fill="black"/>
<path d="M128.701 16.5002H126.45V12.8588H124.431V16.5002H122.122V18.4347H124.431V27.8795H126.45V18.4062H128.701V16.5002ZM117.16 16.2157C116.49 16.1795 115.822 16.3182 115.225 16.6179C114.627 16.9176 114.12 17.3677 113.755 17.9226V16.5002H111.735V27.8795H113.755V21.3648C113.718 20.9114 113.776 20.4554 113.925 20.0249C114.074 19.5943 114.311 19.1984 114.621 18.8614C115.168 18.3552 115.889 18.0708 116.64 18.0648C116.957 18.0489 117.273 18.0962 117.571 18.2037C117.868 18.3113 118.14 18.4769 118.371 18.6907C118.6 18.9336 118.775 19.2211 118.885 19.5347C118.994 19.8483 119.035 20.181 119.006 20.5114V27.7942H121.026V20.3976C121.039 19.6091 120.861 18.8289 120.507 18.1217C120.187 17.5153 119.709 17.0045 119.122 16.6424C118.514 16.3389 117.841 16.1829 117.16 16.1873V16.2157ZM100.569 21.3648C100.679 20.4411 101.131 19.5899 101.839 18.9752C102.566 18.3749 103.487 18.0518 104.435 18.0648C105.321 18.0516 106.182 18.3547 106.859 18.9183C107.217 19.2251 107.509 19.5999 107.717 20.0202C107.925 20.4405 108.046 20.8978 108.071 21.3648H100.569ZM110.091 23.0717C110.139 22.7707 110.158 22.466 110.148 22.1614C110.153 21.1174 109.916 20.0862 109.456 19.1459C109.014 18.2471 108.337 17.481 107.494 16.9269C106.599 16.3657 105.552 16.0877 104.493 16.1304C103.402 16.1236 102.328 16.3982 101.377 16.9269C100.475 17.4371 99.735 18.186 99.2419 19.089C98.7242 20.031 98.4655 21.0903 98.4917 22.1614C98.4655 23.2325 98.7242 24.2918 99.2419 25.2338C99.735 26.1368 100.475 26.8857 101.377 27.3959C102.328 27.9246 103.402 28.1992 104.493 28.1924C105.681 28.2038 106.846 27.8672 107.84 27.2252C108.739 26.6222 109.409 25.7414 109.744 24.7217H107.667C107.42 25.2496 106.99 25.6732 106.455 25.9166C105.733 26.2736 104.923 26.4255 104.118 26.3552C103.313 26.2848 102.544 25.9951 101.896 25.5183C101.159 24.8954 100.685 24.0223 100.569 23.0717H110.091ZM90.6148 26.1726C89.8895 26.1787 89.1745 26.0024 88.5374 25.6605C87.9158 25.3038 87.3989 24.7941 87.037 24.1812C86.696 23.5508 86.5177 22.8474 86.5177 22.1329C86.5177 21.4185 86.696 20.7151 87.037 20.0847C87.3989 19.4718 87.9158 18.9621 88.5374 18.6054C89.1767 18.2692 89.8902 18.0933 90.6148 18.0933C91.3394 18.0933 92.0529 18.2692 92.6922 18.6054C93.3138 18.9621 93.8307 19.4718 94.1926 20.0847C94.5336 20.7151 94.7119 21.4185 94.7119 22.1329C94.7119 22.8474 94.5336 23.5508 94.1926 24.1812C93.8307 24.7941 93.3138 25.3038 92.6922 25.6605C92.0551 26.0024 91.3401 26.1787 90.6148 26.1726ZM94.7119 16.5002V18.4916C94.2426 17.8009 93.6085 17.2343 92.8653 16.8416C92.0847 16.4287 91.2122 16.2136 90.3263 16.2157C89.2917 16.2241 88.2772 16.4987 87.3833 17.0123C86.4809 17.5224 85.7413 18.2713 85.2481 19.1743C84.7196 20.0733 84.4409 21.0938 84.4403 22.1329C84.441 23.19 84.7193 24.2289 85.2481 25.1485C85.7575 26.0396 86.4933 26.7847 87.3833 27.3105C88.2711 27.8383 89.2896 28.114 90.3263 28.1071C91.1908 28.113 92.0435 27.9084 92.8085 27.5114C93.5736 27.1143 94.2274 26.5372 94.7119 25.8312V27.4243C94.7326 27.8943 94.6564 28.3636 94.4877 28.8037C94.3191 29.2438 94.0616 29.6456 93.7309 29.9847C92.9431 30.6369 91.9297 30.9631 90.9033 30.895C90.2445 30.9243 89.589 30.7872 88.999 30.4967C88.4979 30.2884 88.0604 29.9551 87.7295 29.5295C87.468 29.1844 87.3264 28.7654 87.3256 28.3347H85.3059C85.3093 29.1611 85.5937 29.9624 86.1137 30.6105C86.6471 31.3038 87.3668 31.836 88.1912 32.1467C89.0416 32.5312 89.9678 32.7254 90.9033 32.7157C91.8999 32.7176 92.8848 32.504 93.7886 32.0898C94.6602 31.6936 95.4004 31.0624 95.9238 30.2692C96.4737 29.4001 96.7545 28.3916 96.7317 27.3674V16.5002H94.7119ZM80.6317 27.8795H82.6802V16.5002H80.6605L80.6317 27.8795ZM80.6317 14.4519H82.6802V11.9485H80.6605L80.6317 14.4519ZM76.1306 27.8795H78.1503V11.4648H76.1306V27.8795ZM71.6295 27.8795H73.6492V11.4648H71.6295V27.8795ZM60.4345 21.3933C60.544 20.4695 60.9962 19.6183 61.7041 19.0036C62.4311 18.4033 63.3526 18.0803 64.3008 18.0933C65.1867 18.08 66.0476 18.3831 66.7245 18.9467C67.0826 19.2536 67.3744 19.6283 67.5826 20.0486C67.7907 20.4689 67.911 20.9262 67.9363 21.3933H60.4345ZM69.956 23.1002C70.004 22.7992 70.0233 22.4944 70.0137 22.1898C70.018 21.1459 69.7812 20.1147 69.3213 19.1743C68.8795 18.2755 68.2021 17.5094 67.3593 16.9554C66.4649 16.3941 65.4178 16.1161 64.3586 16.1588C63.2672 16.152 62.193 16.4266 61.2424 16.9554C60.3401 17.4655 59.6005 18.2144 59.1073 19.1174C58.5896 20.0595 58.331 21.1187 58.3571 22.1898C58.331 23.261 58.5896 24.3202 59.1073 25.2623C59.6005 26.1652 60.3401 26.9142 61.2424 27.4243C62.193 27.9531 63.2672 28.2277 64.3586 28.2209C65.5467 28.2323 66.7116 27.8956 67.7055 27.2536C68.6044 26.6506 69.2744 25.7699 69.6098 24.7502H67.5324C67.2856 25.278 66.8559 25.7017 66.3206 25.945C65.598 26.3021 64.7889 26.4539 63.9839 26.3836C63.1788 26.3133 62.4094 26.0235 61.7618 25.5467C61.3868 25.2464 61.0762 24.8753 60.8483 24.4552C60.6205 24.0351 60.4798 23.5745 60.4345 23.1002H69.956ZM58.0686 16.5002H55.8181V12.8588H53.8272V16.5002H51.519V18.4347H53.8272V27.8795H55.8469V18.4062H58.0974L58.0686 16.5002ZM44.0172 26.2579C43.2918 26.264 42.5769 26.0878 41.9398 25.7459C41.3182 25.3891 40.8012 24.8794 40.4394 24.2666C40.0984 23.6362 39.92 22.9327 39.92 22.2183C39.92 21.5039 40.0984 20.8004 40.4394 20.17C40.785 19.545 41.3059 19.0314 41.9398 18.6907C42.5791 18.3545 43.2926 18.1786 44.0172 18.1786C44.7418 18.1786 45.4552 18.3545 46.0946 18.6907C46.7161 19.0475 47.2331 19.5572 47.5949 20.17C47.9359 20.8004 48.1143 21.5039 48.1143 22.2183C48.1143 22.9327 47.9359 23.6362 47.5949 24.2666C47.2494 24.8916 46.7285 25.4052 46.0946 25.7459C45.4629 26.1012 44.7442 26.2784 44.0172 26.2579ZM48.1432 11.9485V18.4347C47.667 17.7246 47.0133 17.1473 46.2452 16.7587C45.477 16.37 44.6203 16.183 43.7575 16.2157C42.74 16.2166 41.7422 16.4921 40.8722 17.0123C39.9826 17.5385 39.2469 18.2835 38.7371 19.1743C38.2074 20.0936 37.929 21.1326 37.929 22.1898C37.929 23.247 38.2074 24.2861 38.7371 25.2054C39.2469 26.0962 39.9826 26.8412 40.8722 27.3674C41.7422 27.8876 42.74 28.1631 43.7575 28.164C44.6393 28.1918 45.5136 27.9958 46.2966 27.595C47.0283 27.1865 47.659 26.6229 48.1432 25.945V27.8795H50.1629V11.9485H48.1432ZM29.9657 26.2864C29.2404 26.2924 28.5255 26.1162 27.8883 25.7743C27.2668 25.4176 26.7498 24.9078 26.388 24.295C26.047 23.6646 25.8686 22.9612 25.8686 22.2467C25.8686 21.5323 26.047 20.8289 26.388 20.1985C26.7335 19.5735 27.2544 19.0599 27.8883 18.7192C28.5277 18.3829 29.2411 18.2071 29.9657 18.2071C30.6903 18.2071 31.4038 18.3829 32.0432 18.7192C32.6647 19.0759 33.1817 19.5856 33.5435 20.1985C33.8845 20.8289 34.0629 21.5323 34.0629 22.2467C34.0629 22.9612 33.8845 23.6646 33.5435 24.295C33.198 24.92 32.6771 25.4336 32.0432 25.7743C31.4114 26.1297 30.6928 26.3068 29.9657 26.2864ZM34.0629 16.5002V18.4347C33.5867 17.7246 32.933 17.1473 32.1649 16.7587C31.3967 16.37 30.54 16.183 29.6772 16.2157C28.6404 16.2189 27.6232 16.4948 26.7305 17.0149C25.8379 17.5349 25.1021 18.2804 24.5991 19.1743C24.0695 20.0936 23.791 21.1326 23.791 22.1898C23.791 23.247 24.0695 24.2861 24.5991 25.2054C25.1021 26.0993 25.8379 26.8447 26.7305 27.3648C27.6232 27.8849 28.6404 28.1608 29.6772 28.164C30.559 28.1918 31.4333 27.9958 32.2163 27.595C32.948 27.1865 33.5787 26.6229 34.0629 25.945V27.8795H36.0826V16.5002H34.0629Z" fill="black"/>
</g>
<defs>
<clipPath id="clip0_0_20890">
<rect width="128.684" height="33" fill="white" transform="translate(0.160156)"/>
</clipPath>
</defs>
</svg>
