<svg width="430" height="501" viewBox="0 0 430 501" fill="none" xmlns="http://www.w3.org/2000/svg">
<mask id="mask0_40_2260" style="mask-type:alpha" maskUnits="userSpaceOnUse" x="0" y="0" width="430" height="501">
<rect y="0.0126953" width="430" height="500" fill="#C4C4C4"/>
</mask>
<g mask="url(#mask0_40_2260)">
<path fill-rule="evenodd" clip-rule="evenodd" d="M46.7946 687.474H0C0 687.474 187.848 109.297 207.75 48.0612C217.062 19.4107 243.757 0.0126953 273.877 0.0126953H357.534C382.762 0.0126953 403.817 10.6689 416.908 28.6761C429.99 46.6842 433.701 69.7261 426.073 93.2327C418.434 116.739 411.219 138.929 404.614 159.26C395.696 186.711 370.99 205.627 342.425 207.166C342.425 207.166 342.277 207.117 382.3 83.9318C385.834 73.061 384.544 62.4205 378.992 54.7891C373.451 47.1586 364.1 42.6426 351.727 42.6426H279.941C265.845 42.6426 253.354 51.7199 248.993 65.1274L46.7946 687.474Z" fill="#F0145A"/>
<path fill-rule="evenodd" clip-rule="evenodd" d="M342.416 207.167H248.098L289.656 80.7739L336.673 81.0518L309.372 164.407L356.249 164.435L342.416 207.167Z" fill="url(#paint0_linear_40_2260)"/>
<rect x="128.473" y="290.276" width="44.5507" height="220.604" transform="rotate(17.8882 128.473 290.276)" fill="url(#paint1_linear_40_2260)"/>
</g>
<defs>
<linearGradient id="paint0_linear_40_2260" x1="248.091" y1="182.958" x2="353.01" y2="237.797" gradientUnits="userSpaceOnUse">
<stop stop-color="#F0145A"/>
<stop offset="1" stop-color="#693264"/>
</linearGradient>
<linearGradient id="paint1_linear_40_2260" x1="150.748" y1="290.276" x2="150.748" y2="510.88" gradientUnits="userSpaceOnUse">
<stop offset="0.166667" stop-color="#323264" stop-opacity="0"/>
<stop offset="1" stop-color="#323264"/>
</linearGradient>
</defs>
</svg>
