<svg width="132" height="28" viewBox="0 0 132 28" fill="none" xmlns="http://www.w3.org/2000/svg">
<path d="M1.66699 26.6667L4.10617 23.3906L1.81566 20.8893H2.51492L5.80754 24.5693V20.8893H6.35815V24.5693L9.65076 20.8893H10.35L8.04851 23.3906L10.4987 26.6667H9.82143L7.70162 23.7891L6.35815 25.25V26.6667H5.80754V25.25L4.46406 23.778L2.34424 26.6667H1.66699ZM11.8366 26.6667V20.8893H12.3928V25.9307L16.291 20.8893H16.8471V26.6667H16.291V21.6253L12.3928 26.6667H11.8366ZM17.9374 26.6667L18.042 26.1575C18.2219 26.2092 18.3668 26.235 18.477 26.235C18.6017 26.235 18.7064 26.2258 18.7908 26.2073C18.8789 26.1852 18.9725 26.1354 19.0716 26.0579C19.1707 25.9805 19.2533 25.8717 19.3194 25.7315C19.3855 25.5913 19.4497 25.3976 19.5121 25.1504C19.5782 24.9032 19.6296 24.6044 19.6662 24.2539C19.7066 23.8997 19.7397 23.4663 19.7653 22.9535C19.7911 22.4407 19.8057 21.8541 19.8094 21.1937V20.8893H23.7242V26.6667H23.1681V21.3874H20.338V21.5423C20.338 22.2175 20.3215 22.817 20.2884 23.3408C20.259 23.861 20.2187 24.3037 20.1673 24.6689C20.1196 25.0342 20.0535 25.3459 19.9691 25.6041C19.8847 25.8587 19.7984 26.0616 19.7103 26.2129C19.6222 26.3605 19.5121 26.4767 19.38 26.5615C19.2478 26.6427 19.1211 26.6943 19 26.7165C18.8825 26.7423 18.7394 26.7552 18.5706 26.7552C18.3613 26.7552 18.1502 26.7257 17.9374 26.6667ZM25.4311 23.778C25.4311 23.3759 25.5063 22.9903 25.6569 22.6214C25.8074 22.2525 26.0111 21.9315 26.268 21.6585C26.5249 21.3818 26.8388 21.1623 27.2095 21C27.5803 20.834 27.9749 20.751 28.3934 20.751C28.9476 20.751 29.4505 20.8893 29.902 21.166C30.3572 21.439 30.7095 21.8079 30.9591 22.2728C31.2125 22.7339 31.3391 23.2357 31.3391 23.778C31.3391 24.3166 31.2125 24.8165 30.9591 25.2777C30.7059 25.7388 30.3498 26.1096 29.891 26.39C29.4358 26.6667 28.9293 26.805 28.3713 26.805C27.9565 26.805 27.5656 26.7239 27.1985 26.5615C26.8315 26.3992 26.5194 26.1815 26.2625 25.9085C26.0056 25.6355 25.8019 25.3145 25.6513 24.9457C25.5045 24.573 25.4311 24.1838 25.4311 23.778ZM26.0257 23.778C26.0257 24.4753 26.2533 25.0674 26.7085 25.5543C27.1674 26.0377 27.7289 26.2793 28.3934 26.2793C28.8118 26.2793 29.2009 26.1686 29.5606 25.9473C29.9203 25.7222 30.2067 25.4179 30.4196 25.0342C30.6325 24.6505 30.7389 24.2318 30.7389 23.778C30.7389 23.0844 30.5077 22.4941 30.0452 22.0072C29.5826 21.5165 29.0247 21.2712 28.3713 21.2712C27.9455 21.2712 27.5527 21.3837 27.193 21.6087C26.8333 21.8301 26.5488 22.1344 26.3396 22.5218C26.1303 22.9055 26.0257 23.3242 26.0257 23.778ZM33.0349 26.6667V20.8893H33.591V25.9307L37.4894 20.8893H38.0454V26.6667H37.4894V21.6253L33.591 26.6667H33.0349ZM34.0205 18.6426L34.483 18.543C34.6299 19.0927 34.9822 19.3675 35.5402 19.3675C36.1018 19.3675 36.456 19.0927 36.6028 18.543L37.0654 18.6426C36.9957 19.0189 36.8213 19.3306 36.5423 19.5778C36.2633 19.825 35.9293 19.9486 35.5402 19.9486C35.1511 19.9486 34.8171 19.825 34.5381 19.5778C34.2628 19.3306 34.0903 19.0189 34.0205 18.6426ZM43.5184 26.6667V20.8893H44.0746V24.5915L47.637 20.8893H48.3693L45.853 23.4459L48.4464 26.6667H47.7471L45.4731 23.8444L44.0746 25.2611V26.6667H43.5184ZM49.3934 23.778C49.3934 23.3759 49.4687 22.9903 49.6192 22.6214C49.7697 22.2525 49.9734 21.9315 50.2303 21.6585C50.4872 21.3818 50.8011 21.1623 51.1719 21C51.5426 20.834 51.9372 20.751 52.3557 20.751C52.9099 20.751 53.4128 20.8893 53.8643 21.166C54.3195 21.439 54.6718 21.8079 54.9214 22.2728C55.1748 22.7339 55.3014 23.2357 55.3014 23.778C55.3014 24.3166 55.1748 24.8165 54.9214 25.2777C54.6682 25.7388 54.3121 26.1096 53.8533 26.39C53.3981 26.6667 52.8916 26.805 52.3337 26.805C51.9188 26.805 51.5279 26.7239 51.1608 26.5615C50.7938 26.3992 50.4817 26.1815 50.2248 25.9085C49.9679 25.6355 49.7642 25.3145 49.6137 24.9457C49.4668 24.573 49.3934 24.1838 49.3934 23.778ZM49.988 23.778C49.988 24.4753 50.2156 25.0674 50.6708 25.5543C51.1297 26.0377 51.6912 26.2793 52.3557 26.2793C52.7741 26.2793 53.1632 26.1686 53.5229 25.9473C53.8826 25.7222 54.169 25.4179 54.3819 25.0342C54.5948 24.6505 54.7012 24.2318 54.7012 23.778C54.7012 23.0844 54.47 22.4941 54.0075 22.0072C53.5449 21.5165 52.987 21.2712 52.3337 21.2712C51.9078 21.2712 51.5151 21.3837 51.1553 21.6087C50.7956 21.8301 50.5111 22.1344 50.3019 22.5218C50.0926 22.9055 49.988 23.3242 49.988 23.778ZM56.9972 26.6667V20.8893H57.4983L59.8439 24.2097L62.1895 20.8893H62.685V26.6667H62.1289V21.8522L59.8163 25.0453L57.5313 21.8522V26.6667H56.9972ZM64.7828 26.6667V20.8893H69.5676V26.6667H69.0118V21.3874H65.3389V26.6667H64.7828ZM70.6634 26.6667L70.7676 26.1575C70.948 26.2092 71.0926 26.235 71.2027 26.235C71.3274 26.235 71.4322 26.2258 71.5164 26.2073C71.6047 26.1852 71.6982 26.1354 71.7977 26.0579C71.8965 25.9805 71.9794 25.8717 72.0451 25.7315C72.1114 25.5913 72.1758 25.3976 72.2381 25.1504C72.3038 24.9032 72.3555 24.6044 72.392 24.2539C72.4325 23.8997 72.4656 23.4663 72.4915 22.9535C72.5167 22.4407 72.5313 21.8541 72.5353 21.1937V20.8893H76.4502V26.6667H75.8943V21.3874H73.064V21.5423C73.064 22.2175 73.0474 22.817 73.0142 23.3408C72.985 23.861 72.9446 24.3037 72.8935 24.6689C72.8457 25.0342 72.7794 25.3459 72.6952 25.6041C72.6103 25.8587 72.524 26.0616 72.4365 26.2129C72.3482 26.3605 72.2381 26.4767 72.1061 26.5615C71.9735 26.6427 71.8468 26.6943 71.7261 26.7165C71.6086 26.7423 71.4654 26.7552 71.2962 26.7552C71.0873 26.7552 70.8763 26.7257 70.6634 26.6667ZM78.1569 23.7669C78.1569 23.3537 78.2265 22.9627 78.3665 22.5938C78.5058 22.2211 78.6949 21.9002 78.9336 21.6309C79.1718 21.3615 79.4603 21.1476 79.798 20.9889C80.1389 20.8303 80.5004 20.751 80.8825 20.751C81.4072 20.751 81.8715 20.8856 82.2754 21.1549C82.6827 21.4206 82.9931 21.7821 83.2061 22.2396C83.419 22.6971 83.5251 23.2099 83.5251 23.778C83.5251 23.8702 83.5218 23.9459 83.5145 24.0049H78.7406C78.7884 24.6985 79.0285 25.2519 79.4616 25.6651C79.8988 26.0745 80.4109 26.2793 80.9979 26.2793C81.7541 26.2793 82.4114 25.9786 82.9693 25.3773L83.3547 25.7149C83.0316 26.0653 82.6827 26.3347 82.3086 26.5228C81.9378 26.7109 81.4934 26.805 80.976 26.805C80.6019 26.805 80.2417 26.7312 79.8968 26.5837C79.5558 26.4361 79.2567 26.2332 78.9993 25.9749C78.7426 25.713 78.537 25.3921 78.3824 25.0121C78.2325 24.6283 78.1569 24.2133 78.1569 23.7669ZM78.7406 23.5069H82.9255C82.9069 23.208 82.8499 22.9276 82.7543 22.6657C82.6588 22.4001 82.5288 22.1621 82.3637 21.9518C82.1985 21.7379 81.9856 21.57 81.7249 21.4482C81.4682 21.3228 81.1796 21.2601 80.8606 21.2601C80.2954 21.2601 79.8125 21.4741 79.4126 21.902C79.0159 22.33 78.7917 22.8649 78.7406 23.5069ZM85.133 26.6667V20.8893H85.6895V24.5915L89.2515 20.8893H89.9838L87.4679 23.4459L90.0608 26.6667H89.3616L87.0878 23.8444L85.6895 25.2611V26.6667H85.133ZM91.008 23.778C91.008 23.232 91.1367 22.7284 91.3934 22.2673C91.6508 21.8024 92.003 21.4335 92.4507 21.1605C92.9024 20.8875 93.3979 20.751 93.9372 20.751C94.8327 20.751 95.5962 21.1107 96.2276 21.8301L95.8423 22.223C95.5491 21.9205 95.2532 21.6862 94.9561 21.5202C94.6622 21.3542 94.3193 21.2712 93.9266 21.2712C93.508 21.2712 93.1207 21.3837 92.7645 21.6087C92.4083 21.8301 92.1257 22.1344 91.9167 22.5218C91.7071 22.9055 91.603 23.3242 91.603 23.778C91.603 24.4753 91.8318 25.0674 92.2909 25.5543C92.7499 26.0377 93.3097 26.2793 93.9704 26.2793C94.6569 26.2793 95.2937 25.9509 95.8807 25.2943L96.2827 25.6595C95.9636 26.0247 95.6167 26.3069 95.242 26.5062C94.8718 26.7054 94.4367 26.805 93.9372 26.805C93.3939 26.805 92.8965 26.6703 92.4454 26.4011C91.9977 26.1281 91.6448 25.7609 91.3881 25.2998C91.1347 24.8349 91.008 24.3277 91.008 23.778Z" fill="white"/>
<path d="M12.2696 14.4239C11.6859 14.8541 10.9757 15.1767 10.139 15.3919C9.32183 15.6265 8.47544 15.7439 7.59986 15.7439C6.4324 15.7439 5.44008 15.5581 4.62287 15.1865C3.82513 14.815 3.17331 14.2967 2.66742 13.6319C2.16153 12.9474 1.79184 12.1261 1.55835 11.1679C1.34432 10.2097 1.2373 9.15366 1.2373 7.99986C1.2373 5.51633 1.79184 3.60966 2.9009 2.27986C4.00997 0.930526 5.62492 0.255859 7.74579 0.255859C8.81592 0.255859 9.67206 0.343859 10.3142 0.519859C10.9757 0.695859 11.5691 0.920725 12.0945 1.19453L11.1897 4.30386C10.7422 4.08873 10.2947 3.92253 9.84718 3.80519C9.41908 3.68786 8.92291 3.62919 8.3587 3.62919C7.308 3.62919 6.51023 3.98119 5.96542 4.68519C5.42062 5.36966 5.14822 6.47453 5.14822 7.99986C5.14822 8.62566 5.21632 9.20253 5.35252 9.73053C5.48873 10.2585 5.69303 10.7181 5.96542 11.1092C6.23783 11.5003 6.58806 11.8132 7.01614 12.0479C7.46362 12.263 7.97928 12.3705 8.563 12.3705C9.20509 12.3705 9.74987 12.2923 10.1974 12.1359C10.6449 11.9599 11.0438 11.7545 11.394 11.5199L12.2696 14.4239ZM23.3491 8.64519L23.495 6.56253H23.4074L22.1524 8.70386L16.9573 15.3332H14.5641V0.666526H18.3583V7.64786L18.1831 9.64253H18.2999L19.4965 7.55986L24.75 0.666526H27.1432V15.3332H23.3491V8.64519ZM40.9751 4.03986H36.8599V15.3332H32.949V4.03986H28.8338V0.666526H40.9751V4.03986ZM51.4519 8.64519L51.5979 6.56253H51.5103L50.2553 8.70386L45.0602 15.3332H42.667V0.666526H46.4611V7.64786L46.286 9.64253H46.4028L47.5994 7.55986L52.8528 0.666526H55.2461V15.3332H51.4519V8.64519ZM81.7407 4.03986H77.1293V15.3332H73.3351V0.666526H85.5349V15.3332H81.7407V4.03986ZM88.7811 1.51719C89.5592 1.16519 90.4832 0.891393 91.5538 0.695859C92.6237 0.480726 93.7427 0.373192 94.9102 0.373192C95.9217 0.373192 96.7681 0.500326 97.4493 0.754526C98.1299 0.989192 98.6652 1.33139 99.0546 1.78119C99.4632 2.23099 99.7451 2.76872 99.901 3.39453C100.076 4.02032 100.164 4.72433 100.164 5.50653C100.164 6.36699 100.134 7.23719 100.076 8.11719C100.018 8.97766 99.9786 9.82833 99.9593 10.6692C99.9593 11.5101 99.9885 12.3314 100.047 13.1332C100.105 13.9154 100.251 14.6585 100.485 15.3625H97.391L96.7781 13.3385H96.6321C96.2428 13.9447 95.6982 14.4727 94.9977 14.9225C94.3165 15.3527 93.431 15.5679 92.3418 15.5679C91.6606 15.5679 91.0477 15.4701 90.5031 15.2745C89.9578 15.0594 89.4909 14.7661 89.1022 14.3945C88.7128 14.0034 88.411 13.5537 88.1974 13.0452C87.9831 12.5172 87.8764 11.9305 87.8764 11.2852C87.8764 10.3857 88.0707 9.63273 88.4601 9.02653C88.8687 8.40073 89.4425 7.90206 90.182 7.53053C90.9409 7.13939 91.8357 6.87539 92.8672 6.73853C93.9178 6.58206 95.0853 6.53319 96.3695 6.59186C96.5054 5.49673 96.4278 4.71453 96.136 4.24519C95.8441 3.75633 95.1921 3.51186 94.1805 3.51186C93.4217 3.51186 92.6138 3.59006 91.7581 3.74653C90.921 3.90299 90.2305 4.10833 89.6859 4.36253L88.7811 1.51719ZM93.5968 12.4292C94.3556 12.4292 94.9586 12.263 95.4063 11.9305C95.8534 11.5785 96.1844 11.207 96.3986 10.8159V8.90919C95.795 8.85052 95.2113 8.84073 94.6475 8.87986C94.1022 8.91899 93.616 9.00699 93.1882 9.14386C92.7597 9.28073 92.4194 9.47633 92.1667 9.73053C91.9133 9.98473 91.7873 10.3074 91.7873 10.6985C91.7873 11.2461 91.9425 11.6763 92.2542 11.9892C92.5846 12.2825 93.0323 12.4292 93.5968 12.4292ZM103.348 0.666526H106.12L106.558 2.42653H106.675C107.181 1.68339 107.774 1.13586 108.455 0.783859C109.156 0.431859 110.002 0.255859 110.994 0.255859C112.823 0.255859 114.195 0.842526 115.109 2.01586C116.024 3.16966 116.481 5.03719 116.481 7.61853C116.481 8.87006 116.335 10.0043 116.043 11.0212C115.752 12.0185 115.314 12.8692 114.73 13.5732C114.166 14.2772 113.465 14.815 112.629 15.1865C111.811 15.5581 110.868 15.7439 109.798 15.7439C109.195 15.7439 108.699 15.695 108.309 15.5972C107.92 15.519 107.531 15.3821 107.142 15.1865V21.1999H103.348V0.666526ZM109.856 3.48253C109.116 3.48253 108.533 3.66833 108.105 4.03986C107.696 4.41139 107.375 4.96873 107.142 5.71186V11.8132C107.414 12.0283 107.706 12.2043 108.017 12.3412C108.348 12.4585 108.776 12.5172 109.301 12.5172C110.391 12.5172 111.209 12.1359 111.753 11.3732C112.298 10.591 112.57 9.31006 112.57 7.53053C112.57 6.23986 112.356 5.24253 111.928 4.53853C111.5 3.83453 110.809 3.48253 109.856 3.48253ZM123.925 9.26119H122.903V15.3332H119.109V0.666526H122.903V6.91453L123.808 6.50386L127.223 0.666526H131.28L127.748 6.23986L126.26 7.35453L127.894 8.49853L131.834 15.3332H127.486L123.925 9.26119Z" fill="white"/>
<path d="M64.3417 10.6668C65.8071 10.6668 66.995 9.47292 66.995 8.00016C66.995 6.5274 65.8071 5.3335 64.3417 5.3335C62.8764 5.3335 61.6885 6.5274 61.6885 8.00016C61.6885 9.47292 62.8764 10.6668 64.3417 10.6668Z" fill="#F1C650"/>
</svg>
