<svg width="112" height="49" viewBox="0 0 112 49" fill="none" xmlns="http://www.w3.org/2000/svg">
<path fill-rule="evenodd" clip-rule="evenodd" d="M21.667 3.74854L21.8406 4.97354C16.2981 16.1088 23.3657 15.2023 23.3657 15.2023L24.2584 15.043L24.3948 15.3125C37.5257 13.8425 44.7048 20.5923 44.7048 20.5923C45.6596 4.61829 21.667 3.74854 21.667 3.74854Z" fill="#F8B829"/>
<path d="M13.4211 41.3683C12.8631 45.0433 15.901 47.1748 16.3845 45.9988C17.7236 44.2715 18.1948 44.7738 18.8644 42.1768C19.1088 41.8543 19.3919 41.5622 19.7075 41.307C20.3854 40.6129 21.0384 39.9024 21.6666 39.1755C23.5196 37.1045 25.1025 34.8123 26.3783 32.3523C27.7939 29.8684 28.31 26.982 27.8415 24.1693C27.3343 22.7464 26.611 21.4081 25.6964 20.2003C25.4172 19.5679 25.2899 18.8803 25.3244 18.1913C25.2937 17.1605 24.9809 16.1572 24.4193 15.288C24.1293 14.9791 23.9087 14.6132 23.772 14.2142C23.6352 13.8152 23.5854 13.3921 23.6257 12.9728C23.7869 12.0418 23.7869 11.123 23.9233 10.192C24.0092 8.45235 23.6867 6.71662 22.9809 5.12052C22.9809 5.12052 22.113 3.60152 21.3442 3.98127C19.9755 3.1251 18.3847 2.67978 16.7648 2.69935C15.1448 2.71892 13.5655 3.20254 12.2184 4.09152C12.2184 4.09152 -5.53741 15.3003 10.4701 36.8358C9.98649 39.6288 11.71 42.5075 13.0491 44.4185" fill="#005D86"/>
<path d="M21.5918 16.7826L19.1863 5.95362C19.1863 5.95362 17.7728 1.78862 14.053 7.04387L13.433 6.23537C10.0108 11.0251 5.37351 16.7704 6.40265 22.9934C6.55234 24.142 6.95385 25.2446 7.57916 26.2241C8.20448 27.2037 9.03857 28.0367 10.0232 28.6651C11.4743 29.6606 13.231 30.1257 14.9915 29.9804C16.7519 29.8351 18.4062 29.0885 19.6699 27.8689C21.6042 26.2764 23.1789 23.0424 21.5918 16.7826Z" fill="white"/>
<path fill-rule="evenodd" clip-rule="evenodd" d="M24.3944 15.3495C24.3944 15.3495 35.8761 13.5855 44.7044 20.6293C44.7044 20.6293 36.3969 9.86153 23.1544 11.8583C23.1668 11.8583 22.2121 14.5043 24.3944 15.3495Z" fill="#F19320"/>
<path d="M44.7046 20.6292C44.9379 17.8507 44.2267 15.0745 42.6835 12.7402C42.5595 12.581 41.6047 14.639 41.5923 14.8227C41.5416 15.6811 41.7533 16.5347 42.1999 17.2727C42.8323 18.4242 44.3698 19.3675 44.6798 20.6047" fill="#E95253"/>
<path d="M1.44336 36.1865C3.06629 36.7967 4.83716 36.9119 6.52707 36.5173C8.89533 36.8358 10.1353 37.5708 12.9623 37.8893C16.4217 37.8893 19.8563 37.5218 23.2909 37.2033C24.4068 37.1053 26.8867 36.9705 27.829 37.8403C28.3746 38.3425 28.2134 39.7023 28.2258 40.4128C26.1761 39.6406 24.018 39.1861 21.8278 39.0653C19.3479 39.0653 16.7813 39.1755 14.2642 39.151C12.5473 39.156 10.8334 39.0084 9.14332 38.71C7.56861 38.416 6.0187 38.0118 4.44399 37.6933C3.30325 37.4483 1.91453 37.2523 1.44336 36.1865Z" fill="#9B5F48"/>
<path d="M23.551 38.3914C23.551 38.7834 23.2039 39.6164 22.8815 39.6164C22.5591 39.6164 22.2119 38.7956 22.2119 38.3914V37.0071C22.2119 36.6151 22.4599 36.2231 22.7823 36.2231C22.9773 36.2526 23.1566 36.3459 23.2915 36.488C23.4264 36.6302 23.5091 36.813 23.5262 37.0071L23.551 38.3914Z" fill="#969595"/>
<path d="M22.2121 38.5875C22.2121 38.8938 21.9641 39.5308 21.7037 39.5308C21.4433 39.5308 21.1953 38.8938 21.1953 38.5875V37.4973C21.1953 37.191 21.3813 36.8848 21.6417 36.8848C21.7908 36.9076 21.9271 36.9815 22.0268 37.0934C22.1264 37.2053 22.1832 37.3482 22.1873 37.4973L22.2121 38.5875Z" fill="#838383"/>
<path d="M9.91211 38.3914C9.91211 38.7834 10.2593 39.6164 10.5817 39.6164C10.9041 39.6164 11.2512 38.7956 11.2512 38.3914V37.0071C11.2512 36.6151 11.0032 36.2231 10.6809 36.2231C10.4859 36.2526 10.3066 36.3459 10.1717 36.488C10.0368 36.6302 9.95409 36.813 9.93691 37.0071L9.91211 38.3914Z" fill="#969595"/>
<path d="M11.251 38.5875C11.251 38.8938 11.499 39.5308 11.7593 39.5308C12.0197 39.5308 12.2677 38.8938 12.2677 38.5875V37.4973C12.2677 37.191 12.0817 36.8848 11.8213 36.8848C11.6722 36.9076 11.536 36.9815 11.4363 37.0934C11.3366 37.2053 11.2798 37.3482 11.2758 37.4973L11.251 38.5875Z" fill="#838383"/>
<path d="M24.1214 11.6129C24.419 10.9146 24.9646 8.74636 23.4519 5.01011C23.1791 4.43436 22.4971 3.09911 21.0464 3.78511C20.8356 4.10361 23.6627 5.85536 23.0799 12.0294C23.0799 12.0294 22.3483 14.6141 24.3942 15.3369C24.0898 14.7013 23.933 14.0065 23.9354 13.3034C23.8921 12.7334 23.9552 12.1604 24.1214 11.6129ZM23.985 11.8579C23.985 11.8579 23.985 11.8579 23.9974 11.8579H23.985Z" fill="#003B55"/>
<path d="M21.667 9.33433C22.2126 12.2253 20.7495 13.8668 17.848 13.9036C15.6162 13.9036 12.3675 13.4381 12.0576 10.7431C11.7972 8.40333 13.2975 5.23058 15.7029 4.52008C19.0384 3.51558 21.1462 6.49233 21.6794 9.33433H21.667Z" fill="#F8B829"/>
<path d="M19.8934 9.12647C20.0079 9.46671 20.032 9.83029 19.9636 10.1824C19.8951 10.5345 19.7364 10.8634 19.5024 11.1375C19.2685 11.4116 18.9673 11.6219 18.6276 11.7481C18.2879 11.8742 17.9211 11.9122 17.5623 11.8582C16.1488 11.8582 14.1773 11.5275 14.0533 9.82472C13.9869 9.05025 14.1708 8.27493 14.5785 7.61021C14.9862 6.94548 15.5968 6.42558 16.3224 6.12522C18.3187 5.57397 19.5586 7.35022 19.8562 9.07747L19.8934 9.12647Z" fill="#005D86"/>
<path fill-rule="evenodd" clip-rule="evenodd" d="M18.8026 8.75872C18.8026 9.21519 18.619 9.65297 18.2923 9.97574C17.9656 10.2985 17.5225 10.4798 17.0605 10.4798C16.5984 10.4798 16.1553 10.2985 15.8286 9.97574C15.5019 9.65297 15.3184 9.21519 15.3184 8.75872C15.3184 8.30225 15.5019 7.86448 15.8286 7.5417C16.1553 7.21893 16.5984 7.0376 17.0605 7.0376C17.5225 7.0376 17.9656 7.21893 18.2923 7.5417C18.619 7.86448 18.8026 8.30225 18.8026 8.75872Z" fill="#151410"/>
<path fill-rule="evenodd" clip-rule="evenodd" d="M17.3021 7.66841C17.3021 7.97466 17.0293 7.66841 17.0293 7.66841C17.0293 7.66841 17.3021 7.34991 17.3021 7.66841Z" fill="white"/>
<path fill-rule="evenodd" clip-rule="evenodd" d="M16.3224 7.65641C16.1488 7.65641 16.1116 7.84016 16.0868 8.03616C16.04 8.05374 15.9979 8.08145 15.9634 8.11725C15.9289 8.15305 15.9029 8.19604 15.8875 8.24304C15.872 8.29005 15.8674 8.33988 15.874 8.38887C15.8806 8.43787 15.8982 8.48478 15.9256 8.52616C15.9256 8.52616 16.7687 7.74216 16.8307 7.79116C16.7604 7.73463 16.6787 7.69342 16.5911 7.6702C16.5035 7.64698 16.4119 7.64228 16.3224 7.65641Z" fill="white"/>
<path d="M44.0353 35.917C44.133 35.9148 44.2301 35.9333 44.3199 35.9713C44.4098 36.0094 44.4903 36.0661 44.556 36.1375L46.0191 37.681C43.7997 40.474 39.5467 41.0988 36.2981 39.9105C34.6832 39.2582 33.3048 38.1402 32.3427 36.7023C31.3805 35.2645 30.8793 33.5735 30.9044 31.85C30.7709 30.1039 31.1636 28.3578 32.033 26.8318C32.9024 25.3058 34.2095 24.0682 35.7897 23.275C37.4204 22.5252 39.239 22.2682 41.0171 22.5363C42.7952 22.8044 44.4534 23.5856 45.7836 24.7818L44.5436 26.4478C43.8741 27.4033 42.8449 26.3498 42.1506 26.019C41.1204 25.5499 39.9717 25.3963 38.8524 25.578C37.7035 25.8128 36.6688 26.4249 35.9169 27.3146C35.1649 28.2043 34.7399 29.3193 34.711 30.478C34.5284 31.576 34.6356 32.7019 35.0222 33.747C35.4089 34.7921 36.0619 35.7209 36.9181 36.4438C37.8964 37.0913 39.061 37.4079 40.2369 37.3461C41.4129 37.2842 42.5368 36.8473 43.4401 36.1008C43.6121 35.9755 43.8216 35.9108 44.0353 35.917Z" fill="white"/>
<path d="M51.0407 22.1851V40.2416H47.6309V22.1851H51.0407Z" fill="white"/>
<path d="M57.315 27.7583V40.2533H53.9424V27.7583H57.315Z" fill="white"/>
<path d="M57.7242 24.1326C57.7242 26.7419 53.5332 26.7541 53.5332 24.1326C53.5332 21.5111 57.7242 21.5111 57.7242 24.1326Z" fill="white"/>
<path d="M69.3799 30.5393C68.8467 31.2498 68.2763 30.8088 67.6812 30.5393C66.9475 30.1301 66.0893 29.9953 65.2633 30.1596C63.5522 30.5393 63.0562 32.2666 63.0066 33.8346C62.957 35.4026 63.2918 37.1911 64.8541 37.8158C65.2523 37.9661 65.6769 38.0359 66.1029 38.0212C66.5288 38.0065 66.9475 37.9075 67.334 37.7301C67.9416 37.4483 68.8095 36.3826 69.4419 37.2033L70.409 38.4283C69.5353 39.3427 68.4137 39.9894 67.1781 40.2914C65.9425 40.5933 64.6451 40.5376 63.4406 40.1311C62.2535 39.6593 61.2432 38.8362 60.5484 37.7747C59.8535 36.7131 59.5081 35.4652 59.5596 34.2021C59.4439 32.9125 59.7406 31.6195 60.4079 30.5053C61.0752 29.3911 62.0796 28.5118 63.2794 27.9913C64.4595 27.5417 65.7453 27.4355 66.9846 27.6851C68.2239 27.9348 69.3649 28.5299 70.2726 29.4001L69.3799 30.5393Z" fill="white"/>
<path d="M75.4679 22.1851V32.4383H76.0259C76.1956 32.4463 76.3646 32.411 76.5166 32.3359C76.6685 32.2609 76.7985 32.1485 76.8938 32.0096L79.6837 28.3346C79.8122 28.1551 79.9835 28.0098 80.1825 27.9115C80.3815 27.8132 80.602 27.765 80.8244 27.7711H83.9118L80.3036 32.3036C80.0373 32.6645 79.6999 32.9687 79.3117 33.1978C79.6769 33.4724 79.9808 33.8186 80.2044 34.2146L84.1102 40.2293H81.0724C80.8472 40.245 80.622 40.1997 80.4209 40.0982C80.2199 39.9968 80.0508 39.843 79.9317 39.6536L77.0798 35.0721C76.9938 34.9135 76.8615 34.7843 76.7 34.7013C76.5385 34.6182 76.3554 34.5852 76.1747 34.6066H75.4679V40.2416H72.1201V22.1851H75.4679Z" fill="white"/>
<path d="M88.8459 22.1851V32.4383H89.4039C89.5736 32.4463 89.7426 32.411 89.8946 32.3359C90.0466 32.2609 90.1765 32.1485 90.2719 32.0096L93.0617 28.3346C93.1902 28.1551 93.3616 28.0098 93.5606 27.9115C93.7596 27.8132 93.98 27.765 94.2024 27.7711H97.2899L93.6569 32.3281C93.3905 32.689 93.0531 32.9932 92.6649 33.2223C93.0301 33.4969 93.3341 33.8431 93.5577 34.2391L97.4635 40.2538H94.438C94.2128 40.2695 93.9876 40.2242 93.7866 40.1227C93.5855 40.0213 93.4164 39.8675 93.2973 39.6781L90.4579 35.0843C90.3719 34.9258 90.2395 34.7966 90.078 34.7135C89.9165 34.6305 89.7335 34.5975 89.5527 34.6188H88.8459V40.2538H85.4609V22.1851H88.8459Z" fill="white"/>
<path d="M103.738 43.5977C103.652 43.8119 103.498 43.9929 103.299 44.1142C103.1 44.2355 102.867 44.2906 102.635 44.2715H100.155L102.511 39.2L97.4395 27.7095H100.403C100.604 27.7004 100.802 27.7534 100.971 27.8609C101.14 27.9685 101.271 28.1254 101.345 28.3097L103.751 34.3C103.924 34.7737 104.073 35.2473 104.197 35.721C104.346 35.2432 104.519 34.7655 104.705 34.2877L106.937 28.322C107.012 28.1427 107.139 27.9896 107.303 27.8825C107.466 27.7755 107.659 27.7195 107.855 27.7217H110.558L103.738 43.5977Z" fill="white"/>
</svg>
