<svg width="44" height="44" viewBox="0 0 44 44" fill="none" xmlns="http://www.w3.org/2000/svg">
<path d="M28.8789 38.5H15.8164V42.625H28.8789V38.5Z" fill="black"/>
<path d="M28.8789 38.5H15.8164V42.625H28.8789V38.5Z" fill="url(#paint0_linear_0_20778)"/>
<path d="M10.4309 1.68602L1.19434 10.9226L3.62502 13.3533L12.8616 4.1167L10.4309 1.68602Z" fill="black"/>
<path d="M10.4309 1.68602L1.19434 10.9226L3.62502 13.3533L12.8616 4.1167L10.4309 1.68602Z" fill="url(#paint1_linear_0_20778)"/>
<path d="M33.7647 1.59619L31.334 4.02686L40.5706 13.2635L43.0013 10.8328L33.7647 1.59619Z" fill="black"/>
<path d="M33.7647 1.59619L31.334 4.02686L40.5706 13.2635L43.0013 10.8328L33.7647 1.59619Z" fill="url(#paint2_linear_0_20778)"/>
<path d="M30.6328 6.67332L28.7825 6.5949C28.2489 6.51959 27.7052 6.5693 27.1942 6.74011C26.6832 6.91092 26.2188 7.19816 25.8378 7.57915L22.0535 11.3635L18.0979 7.40791C17.7545 7.07236 17.326 6.83685 16.8587 6.72674C16.3913 6.61662 15.9028 6.63608 15.4457 6.78301C15.0144 6.91416 14.5557 6.92567 14.1184 6.8163C13.6811 6.70694 13.2818 6.48082 12.9631 6.1621L12.3761 5.57506L5.08398 12.8671L6.27198 14.0551L6.19355 15.9053C6.11825 16.4388 6.16795 16.9826 6.33876 17.4936C6.50957 18.0046 6.7968 18.469 7.17779 18.85L13.7863 25.4585C13.8747 24.591 14.2903 23.7898 14.9487 23.218L12.8897 21.159L13.3758 20.6729L15.5264 22.8235C15.8313 22.65 16.1611 22.5246 16.5043 22.4519V19.9123L15.3203 18.7283L15.8064 18.2422L16.5043 18.94V15.262C16.4967 14.6541 16.7124 14.0645 17.1107 13.6051C17.5089 13.1457 18.062 12.8485 18.6648 12.7698C18.8922 12.7478 19.1216 12.7581 19.346 12.8006L18.5007 11.9553L18.9869 11.4692L20.2217 12.7041C20.4404 12.2803 20.7788 11.9301 21.1947 11.6969C21.6107 11.4637 22.0859 11.3577 22.5616 11.3921C23.1355 11.4592 23.668 11.7249 24.0666 12.1433C24.4653 12.5617 24.705 13.1063 24.7442 13.6829C25.135 13.4971 25.568 13.4184 25.9991 13.4546C26.6117 13.528 27.1752 13.8262 27.5804 14.2915C27.9856 14.7569 28.2035 15.3561 28.1918 15.973V18.3269C28.8175 18.4575 29.3944 18.76 29.8578 19.2002C30.3212 19.6404 30.6528 20.201 30.8154 20.8192L32.7325 18.9021L33.2186 19.3883L30.9393 21.6675C30.9394 21.6769 30.9418 21.6857 30.9418 21.6952V23.9778C31.5595 23.9131 32.1365 23.6394 32.5773 23.2019L37.2799 18.4993C37.6155 18.1559 37.851 17.7274 37.9611 17.2601C38.0712 16.7927 38.0517 16.3042 37.9048 15.8471C37.7736 15.4158 37.7621 14.9571 37.8715 14.5198C37.9809 14.0825 38.207 13.6832 38.5257 13.3645L39.1128 12.7774L31.8207 5.48535L30.6328 6.67332Z" fill="black"/>
<path d="M30.6328 6.67332L28.7825 6.5949C28.2489 6.51959 27.7052 6.5693 27.1942 6.74011C26.6832 6.91092 26.2188 7.19816 25.8378 7.57915L22.0535 11.3635L18.0979 7.40791C17.7545 7.07236 17.326 6.83685 16.8587 6.72674C16.3913 6.61662 15.9028 6.63608 15.4457 6.78301C15.0144 6.91416 14.5557 6.92567 14.1184 6.8163C13.6811 6.70694 13.2818 6.48082 12.9631 6.1621L12.3761 5.57506L5.08398 12.8671L6.27198 14.0551L6.19355 15.9053C6.11825 16.4388 6.16795 16.9826 6.33876 17.4936C6.50957 18.0046 6.7968 18.469 7.17779 18.85L13.7863 25.4585C13.8747 24.591 14.2903 23.7898 14.9487 23.218L12.8897 21.159L13.3758 20.6729L15.5264 22.8235C15.8313 22.65 16.1611 22.5246 16.5043 22.4519V19.9123L15.3203 18.7283L15.8064 18.2422L16.5043 18.94V15.262C16.4967 14.6541 16.7124 14.0645 17.1107 13.6051C17.5089 13.1457 18.062 12.8485 18.6648 12.7698C18.8922 12.7478 19.1216 12.7581 19.346 12.8006L18.5007 11.9553L18.9869 11.4692L20.2217 12.7041C20.4404 12.2803 20.7788 11.9301 21.1947 11.6969C21.6107 11.4637 22.0859 11.3577 22.5616 11.3921C23.1355 11.4592 23.668 11.7249 24.0666 12.1433C24.4653 12.5617 24.705 13.1063 24.7442 13.6829C25.135 13.4971 25.568 13.4184 25.9991 13.4546C26.6117 13.528 27.1752 13.8262 27.5804 14.2915C27.9856 14.7569 28.2035 15.3561 28.1918 15.973V18.3269C28.8175 18.4575 29.3944 18.76 29.8578 19.2002C30.3212 19.6404 30.6528 20.201 30.8154 20.8192L32.7325 18.9021L33.2186 19.3883L30.9393 21.6675C30.9394 21.6769 30.9418 21.6857 30.9418 21.6952V23.9778C31.5595 23.9131 32.1365 23.6394 32.5773 23.2019L37.2799 18.4993C37.6155 18.1559 37.851 17.7274 37.9611 17.2601C38.0712 16.7927 38.0517 16.3042 37.9048 15.8471C37.7736 15.4158 37.7621 14.9571 37.8715 14.5198C37.9809 14.0825 38.207 13.6832 38.5257 13.3645L39.1128 12.7774L31.8207 5.48535L30.6328 6.67332Z" fill="url(#paint3_linear_0_20778)"/>
<path d="M20.5425 14.9115C20.4903 14.4648 20.2644 14.0567 19.9138 13.7751C19.5632 13.4936 19.1159 13.3613 18.6685 13.4068C18.2346 13.4666 17.8378 13.6839 17.5535 14.0172C17.2693 14.3506 17.1175 14.7767 17.127 15.2146V23.0228C16.3976 23.0228 15.6981 23.3126 15.1824 23.8283C14.6667 24.344 14.377 25.0435 14.377 25.7728V32.4233C14.3825 32.9035 14.519 33.373 14.7716 33.7813C15.0242 34.1896 15.3834 34.5213 15.8105 34.7406C16.2082 34.9528 16.5407 35.2691 16.7726 35.6556C17.0045 36.0421 17.127 36.4844 17.127 36.9351V37.7653H27.4395V36.0853L28.8032 34.8324C29.2337 34.5084 29.5831 34.0888 29.8236 33.6067C30.0642 33.1245 30.1895 32.5931 30.1895 32.0543V21.6478C30.1895 20.9185 29.8997 20.219 29.384 19.7033C28.8683 19.1876 28.1688 18.8978 27.4395 18.8978V15.9261C27.4511 15.4811 27.2977 15.0475 27.0088 14.7089C26.7199 14.3703 26.3159 14.1506 25.8746 14.0921C25.4415 14.0538 25.0101 14.1816 24.6677 14.4496C24.3253 14.7175 24.0975 15.1056 24.0305 15.5352H24.3457V26.1525H23.6582V15.5352H24.002V13.8636C24.0136 13.4186 23.8602 12.985 23.5713 12.6464C23.2824 12.3078 22.8784 12.0881 22.4371 12.0296C22.1994 12.0083 21.9598 12.0367 21.7337 12.113C21.5075 12.1893 21.2997 12.3119 21.1236 12.473C20.9474 12.634 20.8067 12.83 20.7105 13.0484C20.6142 13.2668 20.5645 13.5029 20.5645 13.7416V14.9115H20.9082V25.5288H20.2207V14.9115H20.5425ZM17.4014 28.9025H16.7139V23.4025H17.4014V28.9025ZM27.0957 19.1113H27.7832V26.2911H27.0957V19.1113Z" fill="black"/>
<path d="M20.5425 14.9115C20.4903 14.4648 20.2644 14.0567 19.9138 13.7751C19.5632 13.4936 19.1159 13.3613 18.6685 13.4068C18.2346 13.4666 17.8378 13.6839 17.5535 14.0172C17.2693 14.3506 17.1175 14.7767 17.127 15.2146V23.0228C16.3976 23.0228 15.6981 23.3126 15.1824 23.8283C14.6667 24.344 14.377 25.0435 14.377 25.7728V32.4233C14.3825 32.9035 14.519 33.373 14.7716 33.7813C15.0242 34.1896 15.3834 34.5213 15.8105 34.7406C16.2082 34.9528 16.5407 35.2691 16.7726 35.6556C17.0045 36.0421 17.127 36.4844 17.127 36.9351V37.7653H27.4395V36.0853L28.8032 34.8324C29.2337 34.5084 29.5831 34.0888 29.8236 33.6067C30.0642 33.1245 30.1895 32.5931 30.1895 32.0543V21.6478C30.1895 20.9185 29.8997 20.219 29.384 19.7033C28.8683 19.1876 28.1688 18.8978 27.4395 18.8978V15.9261C27.4511 15.4811 27.2977 15.0475 27.0088 14.7089C26.7199 14.3703 26.3159 14.1506 25.8746 14.0921C25.4415 14.0538 25.0101 14.1816 24.6677 14.4496C24.3253 14.7175 24.0975 15.1056 24.0305 15.5352H24.3457V26.1525H23.6582V15.5352H24.002V13.8636C24.0136 13.4186 23.8602 12.985 23.5713 12.6464C23.2824 12.3078 22.8784 12.0881 22.4371 12.0296C22.1994 12.0083 21.9598 12.0367 21.7337 12.113C21.5075 12.1893 21.2997 12.3119 21.1236 12.473C20.9474 12.634 20.8067 12.83 20.7105 13.0484C20.6142 13.2668 20.5645 13.5029 20.5645 13.7416V14.9115H20.9082V25.5288H20.2207V14.9115H20.5425ZM17.4014 28.9025H16.7139V23.4025H17.4014V28.9025ZM27.0957 19.1113H27.7832V26.2911H27.0957V19.1113Z" fill="url(#paint4_linear_0_20778)"/>
<defs>
<linearGradient id="paint0_linear_0_20778" x1="22.3477" y1="38.5" x2="22.3477" y2="42.625" gradientUnits="userSpaceOnUse">
<stop stop-color="#EF8080"/>
<stop offset="1" stop-color="#F0145A"/>
</linearGradient>
<linearGradient id="paint1_linear_0_20778" x1="5.81263" y1="6.30431" x2="8.24332" y2="8.735" gradientUnits="userSpaceOnUse">
<stop stop-color="#EF8080"/>
<stop offset="1" stop-color="#F0145A"/>
</linearGradient>
<linearGradient id="paint2_linear_0_20778" x1="32.5493" y1="2.81152" x2="41.7859" y2="12.0481" gradientUnits="userSpaceOnUse">
<stop stop-color="#EF8080"/>
<stop offset="1" stop-color="#F0145A"/>
</linearGradient>
<linearGradient id="paint3_linear_0_20778" x1="22.0984" y1="5.48535" x2="22.0984" y2="25.4585" gradientUnits="userSpaceOnUse">
<stop stop-color="#EF8080"/>
<stop offset="1" stop-color="#F0145A"/>
</linearGradient>
<linearGradient id="paint4_linear_0_20778" x1="22.2832" y1="12.0227" x2="22.2832" y2="37.7653" gradientUnits="userSpaceOnUse">
<stop stop-color="#EF8080"/>
<stop offset="1" stop-color="#F0145A"/>
</linearGradient>
</defs>
</svg>
