<svg width="24" height="24" viewBox="0 0 24 24" fill="none" xmlns="http://www.w3.org/2000/svg">
<g clip-path="url(#clip0_1594_2110)">
<path d="M24 12.1958C24 5.61639 18.6274 0.282776 12 0.282776C5.37258 0.282776 0 5.61639 0 12.1958C0 18.1419 4.38823 23.0703 10.125 23.964V15.6393H7.07812V12.1958H10.125V9.57118C10.125 6.58549 11.9165 4.93628 14.6576 4.93628C15.9705 4.93628 17.3438 5.16896 17.3438 5.16896V8.10067H15.8306C14.3399 8.10067 13.875 9.01897 13.875 9.96107V12.1958H17.2031L16.6711 15.6393H13.875V23.964C19.6118 23.0703 24 18.1419 24 12.1958Z" fill="white"/>
</g>
<defs>
<clipPath id="clip0_1594_2110">
<rect width="24" height="23.6812" fill="white" transform="translate(0 0.282776)"/>
</clipPath>
</defs>
</svg>
