<svg width="36" height="38" viewBox="0 0 36 38" fill="none" xmlns="http://www.w3.org/2000/svg">
<path d="M24.432 10.0068C25.0025 10.5773 25.9267 10.5788 26.4972 10.0068L28.5296 7.97441C29.0993 7.40396 29.0977 6.47971 28.5296 5.90848L23.3994 0.779888C22.8305 0.209438 21.9063 0.209438 21.3358 0.779888L19.3026 2.81231C18.7338 3.38276 18.7338 4.30701 19.3026 4.8759L24.432 10.0068Z" fill="url(#paint0_linear_0_20797)"/>
<path d="M12.2859 22.3806C12.8556 22.9487 13.7798 22.9487 14.3495 22.3806L16.3827 20.3466C16.9532 19.7777 16.9532 18.8527 16.3827 18.2823L11.2526 13.1521C10.6829 12.5832 9.75864 12.5817 9.18819 13.1521L7.15577 15.1845C6.58532 15.755 6.58688 16.6792 7.15577 17.2497L12.2859 22.3806Z" fill="url(#paint1_linear_0_20797)"/>
<path d="M35.5725 22.8683L33.5097 20.8032C32.9377 20.2343 32.0158 20.2343 31.4461 20.8032L30.5413 21.7072L21.8093 12.9735L23.7006 11.0814L18.4536 5.83594L16.5614 7.72808L14.1518 10.1361L12.3018 11.9862L17.548 17.2332L19.4004 15.3839L28.131 24.116L27.3143 24.9335C26.7438 25.5016 26.7422 26.4266 27.3143 26.997L29.3771 29.0606C29.9491 29.6326 30.8725 29.6326 31.4422 29.0606L35.5717 24.9327C36.143 24.3614 36.143 23.4388 35.5725 22.8683Z" fill="url(#paint2_linear_0_20797)"/>
<path d="M20.3209 29.1412C20.3209 28.2068 19.5634 27.4478 18.6275 27.4478H5.40427C4.46911 27.4478 3.71084 28.2068 3.71084 29.1412V31.8898H-0.000976562V37.6481H23.813V31.8898H20.3209V29.1412Z" fill="url(#paint3_linear_0_20797)"/>
<defs>
<linearGradient id="paint0_linear_0_20797" x1="23.9161" y1="0.352051" x2="23.9161" y2="10.4353" gradientUnits="userSpaceOnUse">
<stop stop-color="#EF8080"/>
<stop offset="1" stop-color="#F0145A"/>
</linearGradient>
<linearGradient id="paint1_linear_0_20797" x1="11.7695" y1="12.7249" x2="11.7695" y2="22.8067" gradientUnits="userSpaceOnUse">
<stop stop-color="#EF8080"/>
<stop offset="1" stop-color="#F0145A"/>
</linearGradient>
<linearGradient id="paint2_linear_0_20797" x1="24.151" y1="5.83594" x2="24.151" y2="29.4896" gradientUnits="userSpaceOnUse">
<stop stop-color="#EF8080"/>
<stop offset="1" stop-color="#F0145A"/>
</linearGradient>
<linearGradient id="paint3_linear_0_20797" x1="11.906" y1="27.4478" x2="11.906" y2="37.6481" gradientUnits="userSpaceOnUse">
<stop stop-color="#EF8080"/>
<stop offset="1" stop-color="#F0145A"/>
</linearGradient>
</defs>
</svg>
