<svg width="33" height="33" viewBox="0 0 33 33" fill="none" xmlns="http://www.w3.org/2000/svg">
<path fill-rule="evenodd" clip-rule="evenodd" d="M5.45269 31.7709H0.500488C0.500488 31.7709 6.87358 12.1546 8.97989 5.67405C9.96534 2.64198 12.7904 0.589111 15.978 0.589111H24.8314C27.5013 0.589111 29.7295 1.71685 31.1149 3.62253C32.4993 5.52832 32.8921 7.96683 32.0847 10.4545C31.2764 12.9422 30.5128 15.2905 29.8138 17.4421C28.8701 20.3473 26.2554 22.3491 23.2324 22.5119C23.2324 22.5119 23.2168 22.5068 27.4523 9.4702C27.8263 8.31975 27.6898 7.19368 27.1023 6.38605C26.5158 5.57853 25.5262 5.1006 24.2168 5.1006H16.6197C15.128 5.1006 13.8061 6.06125 13.3446 7.48014L5.45269 31.7709Z" fill="#F0145A"/>
<path fill-rule="evenodd" clip-rule="evenodd" d="M23.2321 22.5121H13.2505L17.6486 9.13599L22.6243 9.16539L19.7351 17.9868L24.696 17.9897L23.2321 22.5121Z" fill="url(#paint0_linear_0_10232)"/>
<defs>
<linearGradient id="paint0_linear_0_10232" x1="13.2498" y1="19.9501" x2="24.3533" y2="25.7536" gradientUnits="userSpaceOnUse">
<stop stop-color="#F0145A"/>
<stop offset="1" stop-color="#693264"/>
</linearGradient>
</defs>
</svg>
