<svg width="44" height="44" viewBox="0 0 44 44" fill="none" xmlns="http://www.w3.org/2000/svg">
<path d="M28.3468 25.9165C29.9639 25.9165 31.5628 26.321 32.9709 27.0862C33.2266 27.224 33.4612 27.3883 33.7008 27.5463C36.0117 23.0227 37.2312 18.2383 37.2312 13.5709C37.2312 13.3086 37.2312 13.0378 37.2228 12.7671C37.2059 12.3863 36.9351 12.0563 36.5543 11.9717C31.4436 10.8548 26.8151 8.08786 23.1766 3.97556L22.6351 3.35784C22.4743 3.17171 22.2459 3.07017 22.0005 3.07017C21.7381 3.03635 21.5351 3.16324 21.3743 3.34095L20.5451 4.25481C17.0928 8.05403 12.7435 10.6771 7.97126 11.8448L7.42124 11.9801C7.04893 12.0648 6.78663 12.3948 6.77816 12.7755C6.47355 24.6725 13.4966 33.2271 16.5259 36.3578C17.346 37.1999 18.2604 38.0369 19.1299 38.7287C18.8037 37.745 18.616 36.71 18.616 35.6473C18.616 30.2816 22.981 25.9165 28.3468 25.9165Z" fill="url(#paint0_linear_0_20789)"/>
<path d="M32.1632 28.573C30.9955 27.9384 29.6755 27.6084 28.3471 27.6084C23.9132 27.6084 20.3086 31.213 20.3086 35.6469C20.3086 37.1446 20.7148 38.6084 21.4932 39.8607C22.974 42.2553 25.5294 43.6853 28.3471 43.6853C32.7725 43.6853 36.3855 40.0807 36.3855 35.6469C36.3855 32.6853 34.7694 29.9776 32.1632 28.573ZM32.4639 34.5766L26.1769 39.4692L24.0305 36.1119C23.7785 35.7181 23.8937 35.1951 24.2875 34.9435C24.6816 34.6914 25.2051 34.8075 25.4559 35.2004L26.6024 36.9936L31.4244 33.2412C31.7926 32.9541 32.3247 33.0198 32.6119 33.3891C32.899 33.7581 32.8325 34.2898 32.4639 34.5766Z" fill="url(#paint1_linear_0_20789)"/>
<defs>
<linearGradient id="paint0_linear_0_20789" x1="21.9999" y1="3.0647" x2="21.9999" y2="38.7287" gradientUnits="userSpaceOnUse">
<stop stop-color="#EF8080"/>
<stop offset="1" stop-color="#F0145A"/>
</linearGradient>
<linearGradient id="paint1_linear_0_20789" x1="28.3471" y1="27.6084" x2="28.3471" y2="43.6853" gradientUnits="userSpaceOnUse">
<stop stop-color="#EF8080"/>
<stop offset="1" stop-color="#F0145A"/>
</linearGradient>
</defs>
</svg>
