<svg width="46" height="46" viewBox="0 0 46 46" fill="none" xmlns="http://www.w3.org/2000/svg">
<path d="M17.2497 20.3043C18.0177 20.3043 18.641 19.681 18.641 18.913V13.4869C18.641 11.0612 20.6146 9.08693 23.0403 9.08693C25.4661 9.08693 27.4403 11.0612 27.4403 13.4869V18.913C27.4403 19.681 28.0629 20.3043 28.8316 20.3043C29.5996 20.3043 30.2229 19.681 30.2229 18.913V13.4869C30.2236 9.52658 27.0014 6.30432 23.0403 6.30432C19.0807 6.30432 15.8584 9.52658 15.8584 13.4869V18.913C15.8584 19.681 16.4817 20.3043 17.2497 20.3043Z" fill="url(#paint0_linear_0_20831)"/>
<path d="M38.9998 17.1781H31.6147V18.9131C31.6147 20.4477 30.3667 21.6957 28.8321 21.6957C27.2975 21.6957 26.0495 20.4477 26.0495 18.9131V17.1781H20.0328V18.9131C20.0328 20.4477 18.7848 21.6957 17.2502 21.6957C15.7156 21.6957 14.4676 20.4477 14.4676 18.9131V17.1781H6.99977C6.61577 17.1781 6.37855 17.4807 6.46968 17.8536L11.3379 37.6776C11.6314 38.792 12.8043 39.6957 13.9563 39.6957H32.0432C33.1966 39.6957 34.3681 38.792 34.6631 37.6776L39.5299 17.8536C39.621 17.48 39.3845 17.1781 38.9998 17.1781Z" fill="url(#paint1_linear_0_20831)"/>
<path d="M20.635 24.6696C20.635 24.1315 21.0708 23.6957 21.6089 23.6957C22.147 23.6957 22.5828 24.1315 22.5828 24.6696V29.5044L22.5828 28.5652C22.5828 28.0272 23.0187 27.5913 23.5568 27.5913C24.0948 27.5913 24.5307 28.0272 24.5307 28.5652V29.7315C24.5394 29.2012 24.972 28.0783 25.5044 28.0783C26.0423 28.0783 26.4783 28.5143 26.4784 29.0522C26.4784 29.0522 26.507 29.7764 26.571 29.8197C26.7269 29.4894 27.0629 28.5652 27.4523 28.5652C27.9902 28.5652 28.4262 29.0013 28.4262 29.5392V34.4087C28.4262 35.4844 27.5541 36.3566 26.4784 36.3566H23.2226C22.1893 36.3566 21.1983 35.946 20.4679 35.2156L18.9306 33.6783L16.7393 32.6976C16.7428 31.7676 17.4715 31.487 18.2001 31.487C18.8278 31.487 19.3922 31.5849 20.6349 32.2174L20.635 24.6696Z" fill="white"/>
<defs>
<linearGradient id="paint0_linear_0_20831" x1="23.0407" y1="6.30432" x2="23.0407" y2="20.3043" gradientUnits="userSpaceOnUse">
<stop stop-color="#EF8080"/>
<stop offset="1" stop-color="#F0145A"/>
</linearGradient>
<linearGradient id="paint1_linear_0_20831" x1="22.9998" y1="17.1781" x2="22.9998" y2="39.6957" gradientUnits="userSpaceOnUse">
<stop stop-color="#EF8080"/>
<stop offset="1" stop-color="#F0145A"/>
</linearGradient>
</defs>
</svg>
