<svg width="161" height="40" viewBox="0 0 161 40" fill="none" xmlns="http://www.w3.org/2000/svg">
<g clip-path="url(#clip0_0_20940)">
<path d="M57.6493 24.437C56.0623 24.437 55.4203 23.3102 55.4203 21.356V15.951H60.0208V13.8912H55.4203V10.4405H53.1914V21.5672C53.1914 24.7363 54.3148 26.4968 57.1322 26.4968C58.523 26.4968 59.6642 26.0039 60.3418 25.4581L59.6464 23.7503C59.1828 24.0672 58.523 24.437 57.6493 24.437ZM67.2604 13.6095C65.6912 13.6095 64.1934 14.0496 63.07 14.7363L63.6585 16.4968C64.657 15.9687 65.5843 15.5813 67.1178 15.5813C69.5963 15.5813 69.9708 17.1834 69.9708 19.4898C69.1327 18.8912 67.831 18.6975 66.8503 18.6975C64.1399 18.6975 62.1071 20.106 62.1071 22.6412C62.1071 25.0356 63.6763 26.4616 65.9587 26.4616C68.0272 26.4616 69.2219 25.6165 69.9708 24.6658V26.2679H72.0749V18.6623C72.0749 15.4581 70.8267 13.6095 67.2604 13.6095ZM69.953 22.8877C69.311 23.6271 68.366 24.4898 66.7255 24.4898C65.2811 24.4898 64.4609 23.7151 64.4609 22.5356C64.4609 21.1095 65.7982 20.4933 67.1356 20.4933C68.2233 20.4933 69.1684 20.775 69.953 21.3208V22.8877ZM82.114 13.6095C80.3843 13.6095 78.7082 14.3489 77.8523 15.3525V13.8912H75.6234V31.7961H77.8523V25.7046C78.7439 26.2856 80.0634 26.5496 81.4007 26.5496C85.3415 26.5496 87.927 23.6623 87.927 19.8771C87.9092 16.2327 85.6803 13.6095 82.114 13.6095ZM81.1868 24.4898C79.9921 24.4898 78.9578 24.2609 77.8344 23.5215V17.3771C78.619 16.4088 79.9742 15.6694 81.4542 15.6694C84.0398 15.6694 85.5198 17.4651 85.5198 19.9651C85.5376 22.5884 83.8615 24.4898 81.1868 24.4898ZM102.228 13.6271L98.5546 14.5074C97.6987 13.9264 96.611 13.5919 95.3806 13.5919C92.2244 13.5919 90.2451 15.6518 90.2451 18.1341C90.2451 19.9475 91.2794 21.4968 93.0625 22.201C92.8307 22.4827 92.7237 22.8701 92.7237 23.2398C92.7237 23.5919 92.8129 23.9792 93.0268 24.2609C90.6196 24.7539 89.0148 26.0215 89.0148 28.0285C89.0148 30.7222 91.743 31.9722 95.3984 31.9722C99.0539 31.9722 101.782 30.6694 101.782 28.0285C101.782 25.3349 99.0539 24.032 95.3984 24.032C95.1488 24.032 94.8991 24.0672 94.6495 24.0672C94.489 23.8384 94.3999 23.5391 94.3999 23.2398C94.3999 23.0109 94.4355 22.7644 94.5425 22.5532C94.8278 22.5884 95.0953 22.5884 95.3806 22.5884C98.4833 22.5884 100.516 20.5989 100.516 18.1341C100.516 17.3595 100.32 16.6201 99.9276 15.9863L102.299 15.4053L102.228 13.6271ZM95.3984 25.863C98.0731 25.863 99.6958 26.6905 99.6958 28.0637C99.6958 29.4722 98.0018 30.2116 95.3984 30.2116C92.8129 30.2116 91.101 29.437 91.101 28.0637C91.101 26.6905 92.7237 25.863 95.3984 25.863ZM95.3806 20.8278C93.5439 20.8278 92.3492 19.701 92.3492 18.1518C92.3492 16.6025 93.5439 15.4053 95.3806 15.4053C97.2529 15.4053 98.4119 16.6201 98.4119 18.1518C98.4119 19.7539 97.1281 20.8278 95.3806 20.8278ZM109.806 13.6095C105.687 13.6095 103.333 16.4792 103.333 20.0884C103.333 23.9968 105.99 26.5672 110.056 26.5672C111.732 26.5672 113.551 26.0391 114.763 24.9475L114.068 23.2046C113.266 23.944 111.839 24.5074 110.216 24.5074C107.756 24.5074 106.026 23.1341 105.83 20.7926H115.477C115.566 20.4053 115.619 19.9123 115.619 19.3137C115.619 15.863 113.034 13.6095 109.806 13.6095ZM105.705 18.9792C105.955 17.0778 107.399 15.6694 109.699 15.6694C111.875 15.6694 113.212 16.937 113.319 18.9792H105.705ZM120.719 15.3349V13.8736H118.49V26.2679H120.719V17.4827C121.2 16.5672 121.896 15.7222 123.34 15.7222C124.089 15.7222 124.428 15.8278 125.034 16.1975L125.819 14.1377C125.409 13.8384 124.892 13.6623 123.875 13.6623C122.27 13.6623 121.361 14.4018 120.719 15.3349ZM128.19 26.2679H130.419V13.8736H128.19V26.2679ZM129.367 7.90527C128.583 7.90527 127.923 8.43344 127.923 9.2257C127.923 10.1412 128.601 10.6518 129.367 10.6518C130.063 10.6518 130.74 10.1236 130.74 9.2257C130.722 8.43344 130.063 7.90527 129.367 7.90527ZM140.726 13.6623C139.085 13.6623 137.498 14.4546 136.625 15.4053V13.8912H134.396V26.2856H136.625V17.3419C137.427 16.4264 138.747 15.7398 140.173 15.7398C142.509 15.7398 143.722 16.9546 143.722 19.5426V26.2856H145.951V19.1201C145.951 15.2292 143.989 13.6623 140.726 13.6623ZM161 19.2785C161 15.863 158.415 13.6095 155.169 13.6095C151.05 13.6095 148.697 16.4792 148.697 20.0884C148.697 23.9968 151.353 26.5672 155.419 26.5672C157.095 26.5672 158.914 26.0391 160.127 24.9475L159.431 23.2046C158.629 23.944 157.202 24.5074 155.579 24.5074C153.119 24.5074 151.389 23.1341 151.193 20.7926H160.84C160.947 20.3877 161 19.8947 161 19.2785ZM151.068 18.9792C151.318 17.0778 152.762 15.6694 155.062 15.6694C157.238 15.6694 158.575 16.937 158.682 18.9792H151.068Z" fill="white"/>
<path d="M40.4239 18.9261C40.4239 18.8908 40.4239 18.838 40.406 18.8028C40.2634 16.4261 39.7106 14.1725 38.8012 12.0775C36.7862 23.4331 26.7293 32.0423 14.6396 32.0423C9.91428 32.0423 5.49208 30.7218 1.74748 28.4331C1.94363 28.8556 2.1576 29.2782 2.38941 29.6831C2.38941 29.6831 2.38941 29.6831 2.38941 29.7007C2.62122 30.088 2.85303 30.4754 3.10267 30.8627C3.1205 30.8803 3.1205 30.8979 3.13833 30.9155C3.63761 31.6725 4.19039 32.3768 4.77882 33.0634C4.81449 33.0986 4.83232 33.1338 4.86798 33.169C5.45642 33.838 6.09835 34.4542 6.75811 35.0352C6.81161 35.0704 6.84727 35.1056 6.90076 35.1585C7.56053 35.7218 8.27378 36.25 9.00487 36.7254C9.05837 36.7606 9.12969 36.7958 9.20102 36.8486C9.53982 37.0599 9.87861 37.2711 10.2352 37.4648C10.2709 37.4824 10.3066 37.5 10.3422 37.5352C10.7167 37.7465 11.109 37.9401 11.5013 38.1162C11.5726 38.1514 11.6439 38.1866 11.7153 38.2218C12.054 38.3803 12.3928 38.5211 12.7495 38.6444C12.8208 38.6796 12.91 38.6972 12.9813 38.7324C13.3914 38.8732 13.8015 39.0141 14.2117 39.1373C14.283 39.1549 14.3543 39.1725 14.4435 39.2077C14.8001 39.3134 15.1567 39.4014 15.5133 39.4894C15.6203 39.507 15.7095 39.5423 15.8165 39.5599C16.2444 39.6479 16.6724 39.7359 17.1003 39.7887C17.1538 39.7887 17.2073 39.8063 17.2787 39.8063C17.6709 39.8592 18.0454 39.8944 18.4377 39.9296C18.5625 39.9472 18.6695 39.9472 18.7943 39.9472C19.2401 39.9824 19.6859 40 20.1495 40C31.3655 40 40.4595 31.0563 40.4595 20.0176C40.4417 19.6127 40.4417 19.2782 40.4239 18.9261ZM35.4489 6.84859C34.2185 5.45775 32.7742 4.22535 31.1872 3.20423C27.7814 7.32394 22.5746 9.96479 16.7437 9.96479C12.482 9.96479 8.55909 8.55634 5.42076 6.17958C2.53206 9.20775 0.570606 13.081 0 17.412C3.79809 19.8239 8.30945 21.2148 13.1596 21.2148C23.1274 21.2148 31.7043 15.3169 35.4489 6.84859ZM27.6031 1.39085C25.285 0.492958 22.7707 0 20.1317 0C17.136 0 14.283 0.651408 11.7331 1.79577C14.0512 2.51761 16.5119 2.92254 19.0796 2.92254C22.0753 2.90493 24.9462 2.35915 27.6031 1.39085Z" fill="white"/>
</g>
<defs>
<clipPath id="clip0_0_20940">
<rect width="161" height="40" fill="white"/>
</clipPath>
</defs>
</svg>
